{"extensionsUsed" : ["KHR_materials_pbrSpecularGlossiness"], "accessors" : [{"bufferView" : 0, "byteOffset" : 0, "componentType" : 5123, "count" : 152535, "type" : "SCALAR", "max" : [29274], "min" : [0]}, {"bufferView" : 1, "byteOffset" : 0, "componentType" : 5126, "count" : 29275, "type" : "VEC3", "max" : [210.02383422851562, 499.90997314453125, 184.24317932128906], "min" : [-177.6934814453125, 1.3135490417480469, -288.66485595703125], "name" : "POSITION"}, {"bufferView" : 1, "byteOffset" : 12, "componentType" : 5126, "count" : 29275, "type" : "VEC3", "max" : [0.9999544024467468, 0.9999867677688599, 0.9998548626899719], "min" : [-0.99997478723526, -0.9999852776527405, -0.9998496770858765], "name" : "TANGENT_0"}, {"bufferView" : 1, "byteOffset" : 24, "componentType" : 5126, "count" : 29275, "type" : "VEC3", "max" : [0.9999825954437256, 0.9999627470970154, 0.9997048377990723], "min" : [-1.000003695487976, -0.9999821186065674, -0.999959409236908], "name" : "NORMAL"}, {"bufferView" : 1, "byteOffset" : 36, "componentType" : 5126, "count" : 29275, "type" : "VEC2", "max" : [0.9989699721336365, 0.996720016002655], "min" : [0.002839999971911311, 0.003059983253479004], "name" : "TEXCOORD_0"}], "asset" : {"generator" : "Aspose.3D 21.4", "version" : "2.0"}, "buffers" : [{"uri" : "buffer.bin", "byteLength" : 24974252}], "bufferViews" : [{"buffer" : 0, "byteOffset" : 0, "byteLength" : 305072, "target" : 34963}, {"buffer" : 0, "byteOffset" : 305076, "byteLength" : 6711540, "byteStride" : 44, "target" : 34962}, {"buffer" : 0, "byteOffset" : 7016620, "byteLength" : 3581437}, {"buffer" : 0, "byteOffset" : 10598060, "byteLength" : 7122264}, {"buffer" : 0, "byteOffset" : 17720328, "byteLength" : 1399818}, {"buffer" : 0, "byteOffset" : 19120148, "byteLength" : 5854103}], "images" : [{"mimeType" : "image/png", "bufferView" : 2}, {"mimeType" : "image/png", "bufferView" : 3}, {"mimeType" : "image/png", "bufferView" : 4}, {"mimeType" : "image/png", "bufferView" : 5}], "materials" : [{"extensions" : {"KHR_materials_pbrSpecularGlossiness" : {"diffuseFactor" : [1, 1, 1, 1], "diffuseTexture" : {"index" : 1, "texCoord" : 0}, "specularFactor" : [1, 1, 1], "glossinessFactor" : 1, "specularGlossinessTexture" : {"index" : 2, "texCoord" : 0, "scale" : 1}}}, "pbrMetallicRoughness" : {"baseColorFactor" : [1, 1, 1, 1], "metallicFactor" : 1, "roughnessFactor" : 1}, "normalTexture" : {"index" : 0, "texCoord" : 0, "scale" : 1}, "emissiveFactor" : [0, 0, 0], "alphaMode" : "OPAQUE", "doubleSided" : true}], "meshes" : [{"primitives" : [{"attributes" : {"POSITION" : 1, "TANGENT_0" : 2, "NORMAL" : 3, "TEXCOORD_0" : 4}, "indices" : 0, "material" : 0, "mode" : 4}]}], "nodes" : [{"mesh" : 0, "name" : "unicorn.1"}, {"children" : [0], "matrix" : [0.009999999776482582, 0, 0, 0, 0, 0.009999999776482582, 0, 0, 0, 0, 0.009999999776482582, 0, 0, 0, 0, 1], "name" : "RootNode.0"}], "samplers" : [{"magFilter" : 9729, "minFilter" : 9985, "wrapS" : 10497, "wrapT" : 10497}, {"magFilter" : 9729, "minFilter" : 9985, "wrapS" : 10497, "wrapT" : 10497}, {"magFilter" : 9729, "minFilter" : 9985, "wrapS" : 10497, "wrapT" : 10497}, {"magFilter" : 9729, "minFilter" : 9985, "wrapS" : 10497, "wrapT" : 10497}], "scene" : 0, "scenes" : [{"nodes" : [1]}], "textures" : [{"sampler" : 0, "source" : 0}, {"sampler" : 1, "source" : 1}, {"sampler" : 2, "source" : 2}, {"sampler" : 3, "source" : 3}]}